<svg width="18" height="18" viewBox="0 0 18 18" fill="none" xmlns="http://www.w3.org/2000/svg">
<path opacity="0.4" d="M6.5625 9.84375H0V14.2188C0 15.4253 0.980957 16.4062 2.1875 16.4062H15.3125C16.519 16.4062 17.5 15.4253 17.5 14.2188V9.84375H10.9375V10.9375C10.9375 11.5425 10.4487 12.0312 9.84375 12.0312H7.65625C7.05127 12.0312 6.5625 11.5425 6.5625 10.9375V9.84375Z" fill="#6682A9"/>
<path d="M13.125 3.28125H15.8594C16.7344 3.28125 17.5 4.04688 17.5 4.92188V9.84375H0V4.92188C0 4.04688 0.765625 3.28125 1.64062 3.28125H4.375V1.91406V1.64062C4.375 0.765625 5.14062 0 6.01562 0H6.28906H11.2109H11.4844C12.3594 0 13.125 0.765625 13.125 1.64062V1.91406V3.28125ZM11.4844 3.28125V1.91406C11.4844 1.76367 11.3613 1.64062 11.2109 1.64062H6.28906C6.13867 1.64062 6.01562 1.76367 6.01562 1.91406V3.28125H11.4844Z" fill="#6682A9"/>
</svg>
