<svg width="24" height="24" viewBox="0 0 24 24" fill="none" xmlns="http://www.w3.org/2000/svg">
<path opacity="0.4" d="M22.5 3.375C22.5 2.33906 21.6609 1.5 20.625 1.5H15.375C14.3391 1.5 13.5 2.33906 13.5 3.375V8.625C13.5 9.66094 14.3391 10.5 15.375 10.5H20.625C21.6609 10.5 22.5 9.66094 22.5 8.625V3.375ZM10.5 15.375C10.5 14.3391 9.66094 13.5 8.625 13.5H3.375C2.33906 13.5 1.5 14.3391 1.5 15.375V20.625C1.5 21.6609 2.33906 22.5 3.375 22.5H8.625C9.66094 22.5 10.5 21.6609 10.5 20.625V15.375Z" fill="#011C47"/>
<path d="M10.5 3.75C10.5 2.50781 9.49219 1.5 8.25 1.5H3.75C2.50781 1.5 1.5 2.50781 1.5 3.75V8.25C1.5 9.49219 2.50781 10.5 3.75 10.5H8.25C9.49219 10.5 10.5 9.49219 10.5 8.25V3.75ZM22.5 15.75C22.5 14.5078 21.4922 13.5 20.25 13.5H15.75C14.5078 13.5 13.5 14.5078 13.5 15.75V20.25C13.5 21.4922 14.5078 22.5 15.75 22.5H20.25C21.4922 22.5 22.5 21.4922 22.5 20.25V15.75Z" fill="#011C47"/>
</svg>
