<svg width="150" height="33" viewBox="0 0 150 33" fill="none" xmlns="http://www.w3.org/2000/svg">
<g clip-path="url(#clip0_1_336)">
<g clip-path="url(#clip1_1_336)">
<path d="M149.885 29.746C149.885 30.1347 149.809 30.4901 149.665 30.8188C149.521 31.149 149.336 31.4365 149.099 31.6814C148.855 31.9263 148.576 32.1206 148.248 32.2549C147.91 32.3908 147.564 32.4587 147.192 32.4587C146.813 32.4587 146.459 32.3908 146.104 32.2549C145.758 32.1206 145.462 31.9342 145.202 31.6893C144.949 31.4444 144.745 31.1569 144.593 30.8283C144.442 30.498 144.366 30.1347 144.366 29.746V20.3359C144.366 20.2017 144.383 20.099 144.416 20.0326C144.383 19.2047 144.214 18.4274 143.911 17.7006C143.606 16.9818 143.194 16.3482 142.671 15.8079C142.146 15.2675 141.539 14.8362 140.84 14.525C140.138 14.2121 139.362 14.0605 138.519 14.0605C137.658 14.0605 136.864 14.2121 136.139 14.525C135.412 14.8362 134.796 15.2754 134.283 15.8332C133.768 16.3909 133.362 17.0418 133.068 17.7938C132.772 18.5459 132.619 19.3485 132.619 20.2096V29.746C132.619 30.1347 132.553 30.498 132.417 30.8283C132.283 31.1569 132.088 31.4444 131.843 31.6893C131.599 31.9342 131.313 32.1206 130.992 32.2549C130.671 32.3908 130.316 32.4587 129.929 32.4587C129.548 32.4587 129.194 32.3908 128.856 32.2549C128.519 32.1206 128.216 31.9263 127.954 31.6814C127.691 31.4365 127.481 31.149 127.33 30.8188C127.178 30.4901 127.102 30.1347 127.102 29.746V20.1922C127.102 18.5712 127.396 17.0497 127.979 15.6388C128.56 14.2279 129.363 12.9956 130.384 11.9402C131.404 10.8832 132.611 10.0554 134.003 9.44708C135.405 8.83881 136.898 8.53546 138.509 8.53546C140.13 8.53546 141.633 8.83881 143.017 9.44708C144.399 10.0554 145.598 10.8832 146.619 11.9402C147.632 12.9956 148.425 14.2279 149.008 15.6388C149.589 17.0497 149.885 18.5712 149.885 20.1922V29.746Z" fill="#011C47"/>
<path d="M81.4689 8.526H94.0293C94.4891 8.53232 94.8493 8.60342 95.2695 8.77879C96.2902 9.22749 96.9095 10.1423 96.9095 11.1613C96.9079 11.6827 96.7373 12.193 96.415 12.6243L82.5179 31.2849C81.6284 32.4793 79.8273 32.7937 78.5176 31.9816C77.2062 31.1711 76.8618 29.5296 77.7513 28.3351L88.2973 14.1742H81.5621C79.8226 14.1742 78.4006 12.9071 78.4006 11.3572C78.4006 10.4282 78.9125 9.60035 79.6962 9.08688C80.186 8.73613 80.8021 8.526 81.4689 8.526ZM89.0936 26.7694H95.3201C96.9095 26.7694 98.2114 28.0476 98.2114 29.6086C98.2114 31.1711 96.9095 32.4493 95.3201 32.4493H89.0936C87.5026 32.4493 86.2023 31.1711 86.2023 29.6086C86.2023 28.0476 87.5026 26.7694 89.0936 26.7694Z" fill="#011C47"/>
<path fill-rule="evenodd" clip-rule="evenodd" d="M111.483 8.53864C111.762 8.526 113.527 8.53074 114.365 8.76299C115.587 9.00472 116.534 10.0649 116.591 11.3778C116.659 12.915 115.478 14.2137 113.955 14.2801C113.842 14.2848 113.729 14.2833 113.619 14.2754C113.619 14.2927 111.957 14.1174 111.726 14.1268C108.214 14.2801 105.49 17.2551 105.642 20.7705C105.795 24.2842 108.767 27.0112 112.281 26.8579C115.794 26.7047 118.518 23.7297 118.365 20.2143C118.354 19.971 118.114 18.5159 117.613 17.4605C117.45 17.0718 117.286 16.6547 117.257 16.2171C117.118 14.0731 118.804 13.1805 119.904 13.1663C121.003 13.1536 121.79 13.7113 122.321 14.4397C123.811 16.7938 123.936 19.704 123.95 19.971C124.31 26.643 119.122 32.1586 112.524 32.4461C105.926 32.7337 100.344 27.6147 100.057 21.0138C99.7692 14.4112 104.885 8.82619 111.483 8.53864Z" fill="#011C47"/>
<path d="M58.7211 20.4703C58.7211 22.0897 59.4589 23.687 60.5427 24.8672C61.102 25.4771 61.7545 25.9716 62.505 26.3555C63.257 26.7394 64.0675 26.9401 64.9365 26.9575C65.8386 26.9575 66.6413 26.8405 67.3333 26.6146C68.0268 26.3887 68.7204 25.9874 69.4219 25.4028C69.7569 25.1184 70.1329 24.8514 70.5421 24.6081C70.9513 24.3664 71.3937 24.2495 71.8787 24.2495C72.1631 24.2495 72.4633 24.3079 72.7809 24.4327C73.0984 24.5575 73.4239 24.7677 73.7573 25.0521C74.3323 25.5576 74.6183 26.2528 74.6009 27.0159C74.5836 27.8612 74.206 28.5848 73.6324 29.1883C72.5976 30.2421 71.3684 31.0447 69.9401 31.5961C68.5119 32.1475 67.0078 32.424 65.4374 32.424C63.7674 32.424 62.1969 32.1143 60.726 31.5045C59.2567 30.8946 57.969 30.0589 56.8583 28.9877C55.7476 27.9181 54.8787 26.6557 54.2436 25.2101C53.5831 23.7233 53.283 22.1181 53.283 20.5382V20.4876C53.283 18.8161 53.6005 17.2441 54.2436 15.781C54.8787 14.318 55.7476 13.0478 56.8583 11.9703C57.969 10.8912 59.2567 10.0475 60.726 9.42815C62.1969 8.8104 63.7674 8.50073 65.4374 8.50073C67.0078 8.50073 68.5119 8.76774 69.9401 9.29544C71.3684 9.82155 72.5976 10.6163 73.6324 11.678C74.2028 12.2483 74.6088 13.0335 74.6262 13.8504C74.6436 14.623 74.3071 15.3371 73.7336 15.849C73.3986 16.1318 73.081 16.3324 72.7809 16.4494C72.4791 16.5678 72.1868 16.6263 71.904 16.6263C71.419 16.6263 70.9766 16.4999 70.5674 16.2582C70.1582 16.0149 69.7727 15.7558 69.4219 15.4714C68.7204 14.9374 68.0268 14.5534 67.3427 14.318C66.6571 14.0842 65.9382 13.9673 65.1877 13.9673C64.3346 13.9673 63.5162 14.1427 62.7309 14.495C61.1621 15.1949 59.9724 16.432 59.2725 17.9961C58.9217 18.7829 58.7211 19.6266 58.7211 20.4703Z" fill="#1BA3A3"/>
<path fill-rule="evenodd" clip-rule="evenodd" d="M38.1694 8.50543C38.449 8.49437 40.2122 8.49911 41.0496 8.73136C42.2725 8.97151 43.2189 10.0332 43.2773 11.3446C43.3437 12.8818 42.1635 14.1821 40.6404 14.2485C40.5267 14.2532 40.4145 14.2516 40.3039 14.2422C40.3055 14.2611 38.6434 14.0842 38.4127 14.0952C34.8989 14.2485 32.1751 17.2219 32.3284 20.7372C32.4817 24.2526 35.4535 26.978 38.9657 26.8247C42.4794 26.6714 45.2032 23.698 45.05 20.1827C45.0389 19.9378 44.7988 18.4843 44.2995 17.4273C44.1352 17.0402 43.9709 16.6215 43.9425 16.1839C43.8034 14.0399 45.4908 13.1473 46.5904 13.1346C47.69 13.1204 48.4769 13.6797 49.0061 14.4065C50.496 16.7621 50.6208 19.6708 50.6366 19.9394C50.9953 26.6098 45.8084 32.1254 39.209 32.4129C32.6112 32.7005 27.0293 27.5831 26.7418 20.9805C26.4542 14.378 31.57 8.79298 38.1694 8.50543Z" fill="#1BA3A3"/>
<path d="M24.1017 20.3596C24.1017 22.0328 23.7826 23.6064 23.1459 25.0678C21.8772 27.9828 19.64 30.2437 16.7424 31.5108C15.2841 32.1459 13.7421 32.4587 12.0911 32.4587C10.4322 32.4587 8.87278 32.1459 7.4145 31.5108C4.51534 30.25 2.28764 27.997 1.04581 25.0678C0.4249 23.6064 0.115234 22.0328 0.115234 20.3596C0.115234 18.7023 0.4249 17.1382 1.04581 15.6673C1.53875 14.495 2.1802 13.4396 2.95437 12.5137C4.73021 10.3666 7.35921 8.81353 9.81284 8.53704C11.3817 8.36009 12.9395 8.33481 14.4515 8.85619C15.2399 9.12952 15.7376 9.5008 16.1483 10.1786C16.5181 10.7869 16.5228 11.5294 16.33 12.3099C16.2321 12.7002 16.0773 13.0367 15.8592 13.329C15.4153 13.923 14.8354 14.2627 14.1418 14.3638C13.7642 14.4191 13.4261 14.3844 13.058 14.2753C12.2017 14.0226 10.9046 14.0368 10.0482 14.2137C9.07343 14.4144 8.53309 14.8473 7.80001 15.4192C7.0685 16.0686 6.49341 16.8791 6.1 17.8223C5.76348 18.617 5.59601 19.4622 5.59601 20.3596C5.59601 21.2728 5.76348 22.126 6.1 22.9207C6.77147 24.5322 7.96432 25.7219 9.55215 26.4124C10.3405 26.7599 11.1953 26.929 12.0911 26.929C12.979 26.929 13.8259 26.7599 14.6142 26.4124C16.2052 25.7203 17.4202 24.5307 18.109 22.9207C18.4219 22.1971 18.5893 21.4229 18.6162 20.5998H18.6273V14.8552V9.55926H18.6194V2.8572C18.6194 2.45116 18.6873 2.07988 18.8121 1.73229C19.0681 1.0308 19.5231 0.533126 20.1961 0.218721C20.5311 0.0670475 20.8913 -0.00878906 21.2942 -0.00878906C21.6876 -0.00878906 22.0478 0.0670475 22.3827 0.218721C23.07 0.531546 23.5724 1.03712 23.8742 1.73229C24.0259 2.07988 24.1017 2.45116 24.1017 2.8572V20.3596Z" fill="#1BA3A3"/>
</g>
</g>
<defs>
<clipPath id="clip0_1_336">
<rect width="150" height="32.45" fill="white"/>
</clipPath>
<clipPath id="clip1_1_336">
<rect width="150" height="32.4675" fill="white" transform="translate(0 -0.00878906)"/>
</clipPath>
</defs>
</svg>
