<svg width="150" height="33" viewBox="0 0 150 33" fill="none" xmlns="http://www.w3.org/2000/svg">
<g clip-path="url(#clip0_1_348)">
<g clip-path="url(#clip1_1_348)">
<g clip-path="url(#clip2_1_348)">
<path d="M4.83956 9.14041V8.26866C4.83956 7.14559 5.05946 6.0775 5.49141 5.07223C6.35531 3.05384 7.8475 1.53809 9.85803 0.658485C10.8633 0.218681 11.9314 -0.0012207 13.0702 -0.0012207C13.8634 -0.0012207 14.5388 0.273657 15.065 0.807704C15.599 1.34175 15.8739 2.00931 15.8739 2.80253C15.8739 3.55648 15.599 4.23974 15.0571 4.75808C14.8058 4.99369 14.5074 5.18218 14.1697 5.32355C13.832 5.46491 13.4629 5.54345 13.078 5.54345H12.9524C12.5754 5.54345 12.2377 5.64555 11.9235 5.81047C10.9575 6.30525 10.3842 7.2791 10.3842 8.35505V9.14041H12.2534C12.6147 9.14827 12.9524 9.2268 13.2665 9.36032C13.6042 9.50168 13.9105 9.69802 14.154 9.94934C14.4053 10.2007 14.6016 10.4912 14.743 10.8211C14.8922 11.1588 14.955 11.5201 14.955 11.9127C14.955 12.3133 14.8922 12.6824 14.743 13.028C14.6016 13.3657 14.4053 13.6641 14.154 13.9154C13.9105 14.1589 13.6042 14.3552 13.2665 14.5044C12.921 14.6458 12.5597 14.7244 12.167 14.7244H10.3842V17.7951V30.0154C10.3842 30.7536 10.0936 31.4762 9.56745 31.9945C9.04911 32.5128 8.36584 32.8113 7.6276 32.8113C6.88936 32.8113 6.17468 32.5128 5.64848 31.9945C5.12229 31.4762 4.83956 30.7536 4.83956 30.0154L4.86312 17.9129V17.1433V16.7113V15.761V14.7322H4.72961V14.7244H3.40234C3.02537 14.7244 2.6641 14.6458 2.32639 14.5044C1.98083 14.3552 1.68239 14.1589 1.42322 13.9076C1.17191 13.6405 0.975566 13.3421 0.826347 12.9966C0.684982 12.6588 0.606445 12.2976 0.606445 11.9127C0.606445 11.5201 0.684982 11.1588 0.826347 10.8211C0.975566 10.4912 1.17191 10.2007 1.42322 9.94934C1.68239 9.69802 1.98083 9.50168 2.32639 9.36032C2.64054 9.2268 2.97039 9.14827 3.31595 9.14041H4.83956Z" fill="white"/>
<path fill-rule="evenodd" clip-rule="evenodd" d="M29.5 9.14039C29.7827 9.13254 31.5262 9.13254 32.3508 9.36029C33.5603 9.60375 34.5027 10.6483 34.5577 11.952C34.6205 13.4677 33.4582 14.7557 31.9503 14.8264C31.8325 14.8264 31.7225 14.8264 31.6126 14.8186C31.6126 14.8343 29.9712 14.6615 29.7434 14.6694C26.2643 14.8264 23.5705 17.7637 23.7197 21.2428C23.8768 24.722 26.814 27.4237 30.2932 27.2666C33.7645 27.1174 36.4661 24.1723 36.3091 20.6931C36.3012 20.4575 36.0656 19.0124 35.5708 17.9679C35.4059 17.5831 35.241 17.1747 35.2174 16.7427C35.076 14.6144 36.7489 13.7348 37.8327 13.7191C38.9243 13.7112 39.7018 14.261 40.228 14.9835C41.7045 17.3082 41.8223 20.1905 41.838 20.4575C42.1993 27.0545 37.063 32.5128 30.5288 32.8034C24.0024 33.0861 18.4813 28.0205 18.1907 21.4863C17.908 14.9521 22.9736 9.42312 29.5 9.14039Z" fill="white"/>
<path d="M95.7061 20.8345C95.7061 22.4916 95.392 24.0545 94.7637 25.4996C93.5071 28.3819 91.2924 30.6201 88.4258 31.8767C86.9807 32.505 85.4571 32.8113 83.8236 32.8113C82.1821 32.8113 80.635 32.505 79.1899 31.8767C76.3233 30.628 74.1165 28.3976 72.8913 25.4996C72.2787 24.0545 71.9724 22.4916 71.9724 20.8345C71.9724 19.2009 72.2787 17.6538 72.8913 16.193C73.3782 15.0385 74.0144 13.994 74.7762 13.0751C76.5354 10.9468 79.1349 9.41531 81.5696 9.14044C83.1167 8.9598 84.656 8.93624 86.1561 9.45458C86.9336 9.72161 87.4284 10.0907 87.8368 10.7661C88.2059 11.363 88.2059 12.1013 88.0174 12.8709C87.9232 13.2557 87.7661 13.5934 87.5462 13.884C87.1142 14.4731 86.5331 14.8029 85.8498 14.905C85.4728 14.96 85.143 14.9286 84.7817 14.8186C83.9335 14.5673 82.6455 14.583 81.7973 14.7558C80.8313 14.9521 80.2973 15.3841 79.5747 15.9495C78.8522 16.5935 78.2789 17.3946 77.8941 18.3292C77.5563 19.1146 77.3914 19.9549 77.3914 20.8345C77.3914 21.7455 77.5563 22.5859 77.8941 23.3712C78.5538 24.9655 79.7397 26.1436 81.3104 26.8268C82.0879 27.1724 82.9361 27.3373 83.8236 27.3373C84.7032 27.3373 85.5356 27.1724 86.321 26.8268C87.8917 26.1436 89.0933 24.9655 89.7766 23.3712C90.0829 22.6565 90.2478 21.8947 90.2792 21.078L90.2871 15.3919V10.1536L90.2792 3.51723C90.2792 3.1167 90.3499 2.74757 90.4756 2.40201C90.7269 1.71089 91.1746 1.21612 91.8421 0.909823C92.172 0.760604 92.5332 0.682068 92.9259 0.682068C93.3186 0.682068 93.672 0.760604 94.0019 0.909823C94.6851 1.21612 95.1799 1.71875 95.4784 2.40201C95.6276 2.74757 95.7061 3.1167 95.7061 3.51723V20.8345Z" fill="white"/>
<path fill-rule="evenodd" clip-rule="evenodd" d="M56.3987 9.14039C56.6735 9.13254 58.417 9.13254 59.2495 9.36029C60.459 9.60375 61.3936 10.6483 61.4486 11.952C61.5192 13.4677 60.349 14.7557 58.8411 14.8264C58.7312 14.8264 58.6212 14.8264 58.5113 14.8186C58.5113 14.8343 56.862 14.6615 56.6343 14.6694C53.163 14.8264 50.4613 17.7637 50.6184 21.2428C50.7676 24.722 53.7049 27.4237 57.184 27.2666C60.6632 27.1174 63.357 24.1723 63.2078 20.6931C63.1921 20.4575 62.9564 19.0124 62.4617 17.9679C62.2967 17.5831 62.1397 17.1747 62.1083 16.7427C61.9747 14.6144 63.6397 13.7348 64.7314 13.7191C65.8152 13.7112 66.5927 14.261 67.1189 14.9835C68.5954 17.3082 68.721 20.1905 68.7367 20.4575C69.0901 27.0545 63.9539 32.5128 57.4275 32.8034C50.8933 33.0861 45.3722 28.0205 45.0894 21.4863C44.8067 14.9521 49.8644 9.42312 56.3987 9.14039Z" fill="white"/>
<path fill-rule="evenodd" clip-rule="evenodd" d="M109.018 9.25035C115.434 8.2922 121.411 12.6745 122.456 19.0517C122.518 19.2637 122.55 19.4836 122.55 19.7192C122.55 21.0308 121.458 22.1068 120.115 22.1068H109.018C107.683 22.1068 106.583 21.0308 106.583 19.7192C106.583 18.3998 107.683 17.3239 109.018 17.3239H115.921C114.594 15.4469 112.269 14.3631 109.835 14.7243C106.395 15.2427 104.015 18.447 104.534 21.8869C105.044 25.3346 108.256 27.7064 111.696 27.1881C111.94 27.1566 113.345 26.764 114.335 26.1671C114.696 25.9629 115.089 25.7587 115.521 25.688C117.618 25.3267 118.67 26.8975 118.796 27.9734C118.921 29.0572 118.458 29.8897 117.791 30.4866C115.631 32.1908 112.78 32.6228 112.521 32.662C105.987 33.7066 100.026 29.175 99.0596 22.7115C98.0936 16.2479 102.547 10.2242 109.018 9.25035Z" fill="white"/>
<path fill-rule="evenodd" clip-rule="evenodd" d="M135.862 9.25035C142.278 8.2922 148.255 12.6745 149.299 19.0517C149.354 19.2637 149.394 19.4836 149.394 19.7192C149.394 21.0308 148.294 22.1068 146.959 22.1068H135.862C134.519 22.1068 133.427 21.0308 133.427 19.7192C133.427 18.3998 134.519 17.3239 135.862 17.3239H142.765C141.438 15.4469 139.113 14.3631 136.679 14.7243C133.231 15.2427 130.859 18.447 131.377 21.8869C131.888 25.3346 135.1 27.7064 138.54 27.1881C138.783 27.1566 140.189 26.764 141.179 26.1671C141.54 25.9629 141.933 25.7587 142.365 25.688C144.462 25.3267 145.514 26.8975 145.64 27.9734C145.765 29.0572 145.294 29.8897 144.634 30.4866C142.475 32.1908 139.624 32.6228 139.357 32.662C132.83 33.7066 126.869 29.175 125.896 22.7115C124.93 16.2479 129.391 10.2242 135.862 9.25035Z" fill="white"/>
</g>
</g>
</g>
<defs>
<clipPath id="clip0_1_348">
<rect width="150" height="32.81" fill="white"/>
</clipPath>
<clipPath id="clip1_1_348">
<rect width="150" height="32.81" fill="white"/>
</clipPath>
<clipPath id="clip2_1_348">
<rect width="150" height="32.8125" fill="white" transform="translate(0 -0.0012207)"/>
</clipPath>
</defs>
</svg>
