<svg width="20" height="20" viewBox="0 0 20 20" fill="none" xmlns="http://www.w3.org/2000/svg">
<path opacity="0.4" d="M0.0429688 10.9492L3.23438 11.7461C3.55469 11.8242 3.89062 11.7305 4.125 11.5L4.70312 10.9219C5.15625 10.4688 5.91797 10.5938 6.20312 11.1641L6.56641 11.8867C6.75391 12.2617 7.13672 12.5 7.55859 12.5C8.15234 12.5 8.57812 11.9297 8.40625 11.3594L8.17188 10.582C7.99219 9.98047 8.44141 9.375 9.07031 9.375H9.16016C9.68359 9.375 10.1719 9.11328 10.4609 8.67969L10.8789 8.05078C11.0977 7.71875 11.0859 7.28516 10.8477 6.96875L10.2188 6.12891C9.81641 5.59375 10.0898 4.82031 10.7422 4.65625L11.4297 4.48438C11.7109 4.41406 11.9414 4.21875 12.0586 3.95703L13.5312 0.640625C17.3125 2.07031 20 5.72266 20 10C20 10.9844 19.8594 11.9375 19.5938 12.8359C19.582 12.8242 19.5664 12.8125 19.5508 12.8047L18.3047 11.9062C18.0742 11.7383 17.7812 11.6875 17.5039 11.7656L16.9766 11.9141C16.7148 11.9883 16.4375 11.8789 16.293 11.6523L16.2148 11.5313C15.9805 11.1641 15.5742 10.9414 15.1367 10.9414C14.6992 10.9414 14.293 11.1641 14.0586 11.5313L13.8203 11.9023C13.7656 11.9883 13.6875 12.0625 13.5977 12.1094L12.1875 12.8945C11.4805 13.2891 11.1914 14.1602 11.5234 14.8984L11.7383 15.3828C12.0742 16.1328 12.9375 16.4961 13.707 16.207L13.8516 16.1523C14.2188 16.0156 14.6328 16.0586 14.9609 16.2734L16.7227 17.4023C14.9492 19.0156 12.5898 20 10 20C4.79688 20 0.523438 16.0273 0.0429688 10.9492ZM6.39844 13.1445C6.0625 13.0625 5.72266 13.2656 5.64062 13.5977C5.55859 13.9297 5.76172 14.2734 6.09375 14.3555L7.34375 14.668C7.67969 14.75 8.01953 14.5469 8.10156 14.2148C8.18359 13.8828 7.98047 13.5391 7.64844 13.457L6.39844 13.1445ZM9.6875 13.5742C10.0234 13.6562 10.3633 13.4531 10.4453 13.1211L10.7578 11.8711C10.8398 11.5352 10.6367 11.1953 10.3047 11.1133C9.97266 11.0312 9.62891 11.2344 9.54688 11.5664L9.23438 12.8164C9.15234 13.1523 9.35547 13.4922 9.6875 13.5742ZM13.6836 5.28125C13.8398 4.97266 13.7109 4.59766 13.4023 4.44141C13.0938 4.28516 12.7188 4.41406 12.5625 4.72266L11.9375 5.97266C11.7812 6.28125 11.9102 6.65625 12.2187 6.8125C12.5273 6.96875 12.9023 6.83984 13.0586 6.53125L13.6836 5.28125Z" fill="#6682A9"/>
<path d="M0.0429688 10.9492L3.23438 11.7461C3.55469 11.8242 3.89062 11.7305 4.125 11.5L4.70312 10.9219C5.15625 10.4688 5.91797 10.5937 6.20312 11.1641L6.56641 11.8867C6.75391 12.2617 7.13672 12.5 7.55859 12.5C8.15234 12.5 8.57812 11.9297 8.40625 11.3594L8.17188 10.582C7.99219 9.98047 8.44141 9.375 9.07031 9.375H9.16016C9.68359 9.375 10.1719 9.11328 10.4609 8.67969L10.8789 8.05078C11.0977 7.71875 11.0859 7.28516 10.8477 6.96875L10.2188 6.12891C9.81641 5.59375 10.0898 4.82031 10.7422 4.65625L11.4297 4.48438C11.7109 4.41406 11.9414 4.21875 12.0586 3.95703L13.5312 0.640625C12.4336 0.226562 11.2422 0 10 0C4.47656 0 0 4.47656 0 10C0 10.3203 0.015625 10.6367 0.0429688 10.9492ZM19.5898 12.8359C19.5781 12.8242 19.5625 12.8125 19.5469 12.8047L18.3008 11.9062C18.0703 11.7383 17.7773 11.6875 17.5 11.7656L16.9727 11.9141C16.7109 11.9883 16.4336 11.8789 16.2891 11.6523L16.2109 11.5312C15.9766 11.1641 15.5703 10.9414 15.1328 10.9414C14.6953 10.9414 14.2891 11.1641 14.0547 11.5312L13.8164 11.9023C13.7617 11.9883 13.6836 12.0625 13.5938 12.1094L12.1875 12.8945C11.4805 13.2891 11.1914 14.1602 11.5234 14.8984L11.7383 15.3828C12.0742 16.1328 12.9375 16.4961 13.707 16.207L13.8516 16.1523C14.2188 16.0156 14.6328 16.0586 14.9609 16.2734L16.7227 17.4023C18.0586 16.1875 19.0664 14.6133 19.5938 12.8359H19.5898ZM5.64453 13.5977C5.5625 13.9336 5.76562 14.2734 6.09766 14.3555L7.34766 14.668C7.68359 14.75 8.02344 14.5469 8.10547 14.2148C8.1875 13.8828 7.98438 13.5391 7.65234 13.457L6.40234 13.1445C6.06641 13.0625 5.72656 13.2656 5.64453 13.5977ZM9.23828 12.8164C9.15625 13.1523 9.35938 13.4922 9.69141 13.5742C10.0234 13.6562 10.3672 13.4531 10.4492 13.1211L10.7617 11.8711C10.8438 11.5352 10.6406 11.1953 10.3086 11.1133C9.97656 11.0312 9.63281 11.2344 9.55078 11.5664L9.23828 12.8164ZM13.4062 4.44141C13.0977 4.28516 12.7227 4.41406 12.5664 4.72266L11.9414 5.97266C11.7852 6.28125 11.9141 6.65625 12.2227 6.8125C12.5312 6.96875 12.9062 6.83984 13.0625 6.53125L13.6875 5.28125C13.8438 4.97266 13.7148 4.59766 13.4062 4.44141Z" fill="#6682A9"/>
</svg>
