<svg width="41" height="40" viewBox="0 0 41 40" fill="none" xmlns="http://www.w3.org/2000/svg">
<path opacity="0.4" d="M20.5 9.5C19.7044 9.5 18.9413 9.81607 18.3787 10.3787C17.8161 10.9413 17.5 11.7044 17.5 12.5C17.5 13.2956 17.8161 14.0587 18.3787 14.6213C18.9413 15.1839 19.7044 15.5 20.5 15.5C21.2956 15.5 22.0587 15.1839 22.6213 14.6213C23.1839 14.0587 23.5 13.2956 23.5 12.5C23.5 11.7044 23.1839 10.9413 22.6213 10.3787C22.0587 9.81607 21.2956 9.5 20.5 9.5ZM13 17C12.2044 17 11.4413 17.3161 10.8787 17.8787C10.3161 18.4413 10 19.2044 10 20C10 20.7956 10.3161 21.5587 10.8787 22.1213C11.4413 22.6839 12.2044 23 13 23C13.7956 23 14.5587 22.6839 15.1213 22.1213C15.6839 21.5587 16 20.7956 16 20C16 19.2044 15.6839 18.4413 15.1213 17.8787C14.5587 17.3161 13.7956 17 13 17ZM17.5 27.5C17.5 28.2956 17.8161 29.0587 18.3787 29.6213C18.9413 30.1839 19.7044 30.5 20.5 30.5C21.2956 30.5 22.0587 30.1839 22.6213 29.6213C23.1839 29.0587 23.5 28.2956 23.5 27.5C23.5 26.7044 23.1839 25.9413 22.6213 25.3787C22.0587 24.8161 21.2956 24.5 20.5 24.5C19.7044 24.5 18.9413 24.8161 18.3787 25.3787C17.8161 25.9413 17.5 26.7044 17.5 27.5ZM28 17C27.2044 17 26.4413 17.3161 25.8787 17.8787C25.3161 18.4413 25 19.2044 25 20C25 20.7956 25.3161 21.5587 25.8787 22.1213C26.4413 22.6839 27.2044 23 28 23C28.7956 23 29.5587 22.6839 30.1213 22.1213C30.6839 21.5587 31 20.7956 31 20C31 19.2044 30.6839 18.4413 30.1213 17.8787C29.5587 17.3161 28.7956 17 28 17Z" fill="#6682A9"/>
<path d="M16 12.5C16 13.2956 15.6839 14.0587 15.1213 14.6213C14.5587 15.1839 13.7956 15.5 13 15.5C12.2044 15.5 11.4413 15.1839 10.8787 14.6213C10.3161 14.0587 10 13.2956 10 12.5C10 11.7044 10.3161 10.9413 10.8787 10.3787C11.4413 9.81607 12.2044 9.5 13 9.5C13.7956 9.5 14.5587 9.81607 15.1213 10.3787C15.6839 10.9413 16 11.7044 16 12.5ZM16 27.5C16 28.2956 15.6839 29.0587 15.1213 29.6213C14.5587 30.1839 13.7956 30.5 13 30.5C12.2044 30.5 11.4413 30.1839 10.8787 29.6213C10.3161 29.0587 10 28.2956 10 27.5C10 26.7044 10.3161 25.9413 10.8787 25.3787C11.4413 24.8161 12.2044 24.5 13 24.5C13.7956 24.5 14.5587 24.8161 15.1213 25.3787C15.6839 25.9413 16 26.7044 16 27.5ZM20.5 23C19.7044 23 18.9413 22.6839 18.3787 22.1213C17.8161 21.5587 17.5 20.7956 17.5 20C17.5 19.2044 17.8161 18.4413 18.3787 17.8787C18.9413 17.3161 19.7044 17 20.5 17C21.2956 17 22.0587 17.3161 22.6213 17.8787C23.1839 18.4413 23.5 19.2044 23.5 20C23.5 20.7956 23.1839 21.5587 22.6213 22.1213C22.0587 22.6839 21.2956 23 20.5 23ZM31 12.5C31 13.2956 30.6839 14.0587 30.1213 14.6213C29.5587 15.1839 28.7956 15.5 28 15.5C27.2044 15.5 26.4413 15.1839 25.8787 14.6213C25.3161 14.0587 25 13.2956 25 12.5C25 11.7044 25.3161 10.9413 25.8787 10.3787C26.4413 9.81607 27.2044 9.5 28 9.5C28.7956 9.5 29.5587 9.81607 30.1213 10.3787C30.6839 10.9413 31 11.7044 31 12.5ZM28 30.5C27.2044 30.5 26.4413 30.1839 25.8787 29.6213C25.3161 29.0587 25 28.2956 25 27.5C25 26.7044 25.3161 25.9413 25.8787 25.3787C26.4413 24.8161 27.2044 24.5 28 24.5C28.7956 24.5 29.5587 24.8161 30.1213 25.3787C30.6839 25.9413 31 26.7044 31 27.5C31 28.2956 30.6839 29.0587 30.1213 29.6213C29.5587 30.1839 28.7956 30.5 28 30.5Z" fill="#6682A9"/>
</svg>
