<svg width="159" height="40" viewBox="0 0 159 40" fill="none" xmlns="http://www.w3.org/2000/svg">
<g clip-path="url(#clip0_1_161)">
<g clip-path="url(#clip1_1_161)">
<g clip-path="url(#clip2_1_161)">
<path d="M104.524 20.2595C104.524 21.1974 104.689 22.0711 105.029 22.8898C105.369 23.7084 105.837 24.4165 106.434 25.0237C107.022 25.6306 107.729 26.1088 108.547 26.4583C109.355 26.8078 110.228 26.9826 111.164 26.9826C112.111 26.9826 112.965 26.8078 113.718 26.449C114.462 26.0905 115.105 25.603 115.619 24.9867C116.143 24.3704 116.547 23.6531 116.832 22.8254C117.116 21.9977 117.254 21.1146 117.254 20.1766V9.98602C117.254 9.56285 117.337 9.16735 117.502 8.80881C117.667 8.45002 117.897 8.13723 118.182 7.87072C118.467 7.60395 118.797 7.3925 119.165 7.23611C119.532 7.07971 119.918 7.00604 120.331 7.00604C120.754 7.00604 121.139 7.07971 121.488 7.23611C121.838 7.3925 122.15 7.60395 122.416 7.87072C122.683 8.13723 122.894 8.45002 123.041 8.80881C123.188 9.16735 123.261 9.56285 123.261 9.98602V20.1122C123.261 21.878 122.967 23.5427 122.37 25.1064C121.773 26.6698 120.937 28.031 119.872 29.1992C118.806 30.3671 117.53 31.2961 116.042 31.9768C114.554 32.6574 112.928 32.9976 111.164 32.9976C109.401 32.9976 107.757 32.6574 106.223 31.9861C104.689 31.3145 103.348 30.4041 102.209 29.2452C101.07 28.0864 100.17 26.7344 99.5085 25.1891C98.8472 23.6441 98.5166 21.9977 98.5166 20.2502V9.98602C98.5166 9.56285 98.5993 9.16735 98.7555 8.80881C98.9116 8.45002 99.1228 8.13723 99.389 7.87072C99.6555 7.60395 99.9771 7.3925 100.344 7.23611C100.712 7.07971 101.097 7.00604 101.511 7.00604C101.915 7.00604 102.301 7.07971 102.668 7.23611C103.036 7.3925 103.357 7.60395 103.642 7.87072C103.917 8.13723 104.129 8.45002 104.285 8.80881C104.441 9.16735 104.524 9.56285 104.524 9.98602V20.2595Z" fill="#011C47"/>
<path fill-rule="evenodd" clip-rule="evenodd" d="M95.0825 26.9655C96.7506 26.9655 98.1026 28.3177 98.1026 29.9856C98.1026 31.6536 96.7506 33.0059 95.0825 33.0059C93.4147 33.0059 92.0625 31.6536 92.0625 29.9856C92.0625 28.3177 93.4147 26.9655 95.0825 26.9655Z" fill="#6682A9"/>
<path d="M130.68 7.01355H144.219C144.715 7.0195 145.102 7.09808 145.556 7.28756C146.656 7.77638 147.324 8.77108 147.324 9.87927C147.322 10.4462 147.138 11.0006 146.791 11.4693L131.811 31.7565C130.852 33.0555 128.911 33.397 127.498 32.515C126.085 31.633 125.713 29.8483 126.673 28.5493L138.051 13.1392H130.838C128.971 13.1392 127.443 11.7658 127.443 10.0871C127.443 9.42741 127.679 8.81503 128.079 8.31432C128.634 7.53287 129.594 7.01355 130.68 7.01355ZM138.987 26.8924H145.676C147.384 26.8924 148.781 28.266 148.781 29.9447C148.781 31.6234 147.384 32.9971 145.676 32.9971H138.987C137.279 32.9971 135.882 31.6234 135.882 29.9447C135.882 28.266 137.279 26.8924 138.987 26.8924Z" fill="#011C47"/>
<path d="M89.1301 30.0494C89.1301 30.4715 89.0474 30.857 88.8915 31.215C88.7356 31.5727 88.534 31.8847 88.2773 32.151C88.0116 32.4173 87.7089 32.6282 87.3514 32.775C86.9846 32.9221 86.6087 32.9955 86.2052 32.9955C85.7926 32.9955 85.4077 32.9221 85.0226 32.775C84.6467 32.6282 84.3256 32.4263 84.0416 32.1603C83.7665 31.8941 83.5465 31.582 83.3814 31.224C83.2164 30.8663 83.134 30.4715 83.134 30.0494V19.8253C83.134 19.6784 83.1523 19.5683 83.1888 19.4949C83.1523 18.5956 82.9688 17.7511 82.6387 16.9619C82.3088 16.1817 81.8596 15.4933 81.2911 14.906C80.7227 14.3187 80.0625 13.8506 79.3015 13.5109C78.5404 13.1712 77.697 13.0061 76.7803 13.0061C75.8451 13.0061 74.9832 13.1712 74.1948 13.5109C73.4061 13.8506 72.7369 14.3278 72.1778 14.9334C71.6184 15.5394 71.1784 16.2458 70.8573 17.0627C70.5365 17.8795 70.3716 18.7515 70.3716 19.6875V30.0494C70.3716 30.4715 70.2982 30.8663 70.1514 31.224C70.0048 31.582 69.7939 31.8941 69.5281 32.1603C69.2621 32.4263 68.9504 32.6282 68.6019 32.775C68.2537 32.9221 67.8686 32.9955 67.4467 32.9955C67.0341 32.9955 66.6492 32.9221 66.2824 32.775C65.9156 32.6282 65.5858 32.4173 65.3014 32.151C65.0171 31.8847 64.7881 31.5727 64.6229 31.215C64.4579 30.857 64.3755 30.4715 64.3755 30.0494V19.6691C64.3755 17.9072 64.6963 16.2551 65.3288 14.7225C65.9616 13.1896 66.8325 11.8498 67.942 10.7026C69.0512 9.55537 70.3623 8.65579 71.8751 7.99507C73.3971 7.33434 75.0199 7.00398 76.771 7.00398C78.5314 7.00398 80.1633 7.33434 81.667 7.99507C83.1704 8.65579 84.4725 9.55537 85.5819 10.7026C86.6821 11.8498 87.544 13.1896 88.1765 14.7225C88.8091 16.2551 89.1301 17.9072 89.1301 19.6691V30.0494Z" fill="#011C47"/>
<path d="M14.7954 6.99416H28.4424C28.9426 7.0001 29.3326 7.07868 29.7899 7.26816C30.8981 7.75647 31.572 8.7504 31.572 9.85806C31.5702 10.4242 31.3849 10.9787 31.0349 11.4468L15.9354 31.7203C14.9686 33.0185 13.0121 33.3597 11.588 32.4783C10.1637 31.597 9.78936 29.8137 10.7564 28.5155L22.2141 13.1312H14.8963C13.0074 13.1312 11.4618 11.7534 11.4618 10.0695C11.4618 9.0606 12.0171 8.16179 12.8683 7.60318C13.4003 7.22215 14.0701 6.99416 14.7954 6.99416ZM23.079 26.8145H29.8447C31.5723 26.8145 32.9857 28.2029 32.9857 29.9C32.9857 31.597 31.5723 32.9857 29.8447 32.9857H23.079C21.3515 32.9857 19.9383 31.597 19.9383 29.9C19.9383 28.2029 21.3515 26.8145 23.079 26.8145Z" fill="#011C47"/>
<path fill-rule="evenodd" clip-rule="evenodd" d="M47.4094 7.00993C47.7136 6.99675 49.6301 7.00192 50.5393 7.25421C51.868 7.51633 52.897 8.66846 52.9591 10.0941C53.0317 11.7642 51.7496 13.1764 50.0952 13.2485C49.9719 13.254 49.8501 13.2516 49.7299 13.2423C49.7304 13.262 47.9246 13.0712 47.6738 13.0823C43.8568 13.2485 40.8973 16.4795 41.0635 20.2988C41.23 24.1179 44.4591 27.079 48.2759 26.9128C52.0928 26.7463 55.0524 23.5153 54.8859 19.696C54.8746 19.4308 54.6135 17.8506 54.0701 16.7034C53.8923 16.2815 53.7134 15.8276 53.6824 15.3522C53.5311 13.0229 55.3639 12.0527 56.5587 12.0385C57.7537 12.0243 58.6083 12.6305 59.184 13.421C60.8024 15.9796 60.9389 19.141 60.9547 19.4316C61.3453 26.6799 55.709 32.6724 48.5403 32.9849C41.3719 33.2974 35.3072 27.7361 34.995 20.5633C34.6827 13.3905 40.2407 7.32246 47.4094 7.00993Z" fill="#011C47"/>
</g>
</g>
</g>
<defs>
<clipPath id="clip0_1_161">
<rect width="139" height="26" fill="white" transform="translate(10 7)"/>
</clipPath>
<clipPath id="clip1_1_161">
<rect width="139" height="26" fill="white" transform="translate(10 7)"/>
</clipPath>
<clipPath id="clip2_1_161">
<rect width="139" height="26.0117" fill="white" transform="translate(10 6.99416)"/>
</clipPath>
</defs>
</svg>
