<svg width="22" height="18" viewBox="0 0 22 18" fill="none" xmlns="http://www.w3.org/2000/svg">
<path opacity="0.4" d="M17.5041 12.0312V4.375H17.4528L15.0255 2.7583C14.4682 2.38574 13.8152 2.1875 13.1452 2.1875C12.4375 2.1875 11.7469 2.40967 11.1725 2.81982L7.80165 5.22607C7.0632 5.75244 6.89226 6.77783 7.41875 7.51611C7.94524 8.25439 8.97086 8.42529 9.70931 7.89893L11.6648 6.50439L16.9707 11.3682C17.1759 11.5562 17.3229 11.7852 17.4083 12.0312H17.5041ZM18.5981 12.0312C18.5981 12.6362 19.0869 13.125 19.6921 13.125H20.7861C21.3912 13.125 21.8801 12.6362 21.8801 12.0312V4.92188C21.8801 4.62109 21.6339 4.375 21.3331 4.375H18.5981V12.0312ZM20.2391 10.9375C20.3841 10.9375 20.5233 10.9951 20.6258 11.0977C20.7284 11.2002 20.7861 11.3393 20.7861 11.4844C20.7861 11.6294 20.7284 11.7685 20.6258 11.8711C20.5233 11.9736 20.3841 12.0312 20.2391 12.0312C20.094 12.0312 19.9549 11.9736 19.8523 11.8711C19.7497 11.7685 19.6921 11.6294 19.6921 11.4844C19.6921 11.3393 19.7497 11.2002 19.8523 11.0977C19.9549 10.9951 20.094 10.9375 20.2391 10.9375Z" fill="#5D78FF"/>
<path d="M5.34009 12.0312H4.376V4.375L6.8375 2.73438C7.37082 2.37891 7.99987 2.1875 8.6426 2.1875C9.41866 2.1875 10.1708 2.46436 10.7588 2.97021L10.8511 3.04883L7.79817 5.22949C7.05972 5.75586 6.88878 6.78125 7.41527 7.51953C7.94175 8.25781 8.96738 8.42871 9.70583 7.90234L11.6614 6.50781L12.1092 6.91797L16.9707 11.3682C17.1587 11.5391 17.2989 11.7476 17.3843 11.9663C17.61 12.5337 17.5108 13.2036 17.0698 13.6855C16.4579 14.3521 15.4186 14.3999 14.7519 13.7847L14.4852 13.542C14.4545 13.8872 14.3143 14.229 14.0613 14.5059C13.4494 15.1724 12.4101 15.2202 11.7434 14.605L11.1622 14.0718C11.0973 14.3247 10.9708 14.5674 10.7827 14.7759C10.1708 15.4458 9.1349 15.4937 8.46482 14.8818L5.34009 12.0312ZM0 4.92188C0 4.62109 0.24615 4.375 0.547 4.375H3.282V12.0312C3.282 12.6362 2.79312 13.125 2.188 13.125H1.094C0.488881 13.125 0 12.6362 0 12.0312V4.92188ZM2.188 11.4844C2.188 11.3393 2.13037 11.2002 2.02779 11.0977C1.9252 10.9951 1.78607 10.9375 1.641 10.9375C1.49593 10.9375 1.35679 10.9951 1.25421 11.0977C1.15163 11.2002 1.094 11.3393 1.094 11.4844C1.094 11.6294 1.15163 11.7685 1.25421 11.8711C1.35679 11.9736 1.49593 12.0312 1.641 12.0312C1.78607 12.0312 1.9252 11.9736 2.02779 11.8711C2.13037 11.7685 2.188 11.6294 2.188 11.4844Z" fill="#5D78FF"/>
</svg>
