<svg width="23" height="26" viewBox="0 0 23 26" fill="none" xmlns="http://www.w3.org/2000/svg">
<path d="M4.57645 -0.00584412H18.2234C18.7236 0.000101355 19.1136 0.078685 19.5709 0.268165C20.6791 0.756469 21.353 1.7504 21.353 2.85806C21.3512 3.42418 21.1659 3.97866 20.8159 4.4468L5.71643 24.7203C4.74964 26.0185 2.79307 26.3597 1.369 25.4783C-0.0553299 24.597 -0.429636 22.8136 0.537408 21.5155L11.9951 6.13117H4.67727C2.78841 6.13117 1.24285 4.75338 1.24285 3.06952C1.24285 2.0606 1.79811 1.16179 2.64934 0.603179C3.18133 0.222152 3.8511 -0.00584412 4.57645 -0.00584412ZM12.86 19.8145H19.6257C21.3533 19.8145 22.7667 21.2029 22.7667 22.9C22.7667 24.597 21.3533 25.9857 19.6257 25.9857H12.86C11.1325 25.9857 9.71928 24.597 9.71928 22.9C9.71928 21.2029 11.1325 19.8145 12.86 19.8145Z" fill="#011C47"/>
</svg>
